<?xml version="1.0" encoding="UTF-8"?>
<svg id="Layer_1" data-name="Layer 1" xmlns="http://www.w3.org/2000/svg" viewBox="0 0 788.57 845.09">
  <defs>
    <style>
      .cls-1, .cls-2 {
        stroke: #000;
        stroke-miterlimit: 10;
        stroke-width: 6px;
      }

      .cls-2 {
        fill: none;
      }
    </style>
  </defs>
  <path class="cls-2" d="M404.17,533.93s-79.73,98.66,55.05,52.92"/>
  <path d="M372,337.01c25.91,2.79,52.32-.28,76.93-8.84-2.92-5.01-5.84-10.03-8.76-15.04-24.81,24.23-49.63,48.45-74.44,72.68-5.93,5.79-1.1,14.79,6.36,15.36,27.3,2.09,54.94-1.48,80.83-10.41,10.89-3.76,6.21-21.15-4.79-17.36-24.55,8.47-50.15,11.75-76.04,9.77l6.36,15.36c24.81-24.23,49.63-48.45,74.44-72.68,6.19-6.05-.09-18.06-8.76-15.04-23.3,8.11-47.62,10.84-72.15,8.2-4.84-.52-9,4.51-9,9,0,5.3,4.15,8.48,9,9h0Z"/>
  <circle class="cls-1" cx="648.96" cy="599.07" r="18.32"/>
  <ellipse class="cls-1" cx="567.82" cy="494.93" rx="39.26" ry="30.16"/>
  <ellipse class="cls-1" cx="278.89" cy="500.54" rx="39.26" ry="30.16"/>
  <path class="cls-2" d="M181.93,503.99c.2,37.71,45.09,65.9,96.89,62.96,53.49-3.04,97.02-28.19,97.02-62.96,0-34.77-43.44-62.96-97.02-62.96-39.26,0-97.08,27.19-96.89,62.96Z"/>
  <ellipse class="cls-2" cx="564.72" cy="507.75" rx="102.56" ry="62.96"/>
  <path class="cls-2" d="M113.4,591.42S11.9,539.69,3.05,259.82c-.1-3.2,0-7.98,0-11.27-.04-52.49,31.76-195.17,141.5-207.84,95.18-10.98,87.83,72.1,79.61,103.8-2.09,8.06-5.91,17.11-10.73,23.9-10.95,15.45-32.33,50.65-28.35,85.22,5.31,46.11,71.37,51.59,71.37,51.59"/>
  <path class="cls-2" d="M555.97,301.17c-2.13,1.94,66.9-46.84,60.02-120.14,0,0-2.45-35.54-53.17-56.98-50.73-21.44-54.15-96.96,0-115.29,0,0,121.51-43.31,199.26,107.53,0,0,82.38,177.29-61.34,441.8"/>
  <path d="M148.17,116.28c-34.75,24.39-67.61,60.44-59.15,106.32,1.93,10.45,6.64,19.95,13.21,28.23s15.31,15.22,22.39,23.38c12.53,14.44,16.72,35.23,13.13,53.77-4.35,22.45-18.44,41.15-36.08,55.12-3.81,3.02-3.16,9.57,0,12.73,3.77,3.77,8.9,3.03,12.73,0,32.17-25.48,52.52-69,37.61-109.51-3.68-10-9.13-18.84-16.32-26.7s-15.32-13.96-21.31-22.35c-11.47-16.08-10.8-37.99-3.09-55.54,9.27-21.1,27.48-36.93,45.96-49.9,3.97-2.79,5.83-7.87,3.23-12.31-2.3-3.93-8.31-6.03-12.31-3.23h0Z"/>
  <path d="M629.54,94.62c30.27,25.5,70.61,59.9,61.62,104.67-2.02,10.07-6.67,18.4-13.67,25.86-7.65,8.16-16.23,15.6-21.77,25.48-10.9,19.47-10.28,43.95-2.35,64.36,9.47,24.38,27.55,43.6,45.76,61.81,8.2,8.2,20.93-4.52,12.73-12.73-15.55-15.55-31.73-31.86-40.54-52.39-7.91-18.43-9-41.76,4.05-58.14,7.04-8.84,15.98-15.89,22.65-25.08,6.23-8.59,9.86-18.88,11.3-29.33,3-21.79-3.11-44.04-14.67-62.53-13.54-21.65-33.05-38.42-52.38-54.71-3.71-3.13-9.08-3.64-12.73,0-3.21,3.21-3.73,9.58,0,12.73h0Z"/>
  <path class="cls-2" d="M249.39,661.65s-30.02,44.32-44.6,43.24"/>
  <path class="cls-2" d="M279.6,685.32c-8.57,25.3-30.22,47.61-30.22,47.61"/>
  <path class="cls-2" d="M324.99,706.39s-6.23,39.69-19.6,48.51"/>
  <line class="cls-2" x1="369.35" y1="716.31" x2="365.16" y2="764.4"/>
  <line class="cls-2" x1="422.69" y1="716.31" x2="422.69" y2="764.4"/>
  <path class="cls-2" d="M464.78,709.13s2.91,31.64,12.78,49.91"/>
  <path class="cls-2" d="M509.03,691.71s-7.65,9.1,17.31,48.65"/>
  <path class="cls-2" d="M545.2,669.88s-4.37,30.27,21.81,51.83"/>
  <path class="cls-2" d="M572.92,650.17s2.22,26.42,33.22,45.62"/>
  <path class="cls-2" d="M238.97,648.4c28.11,47.85,192.68,135.5,345.76-11.22,3.6-3.45,8.82-4.71,13.75-3.98,5.01.74,11.3,2.65,16.52,7.3,22.16,19.73,12.59,31.56,11.44,32.78-35.25,37.9-96.44,94.65-238.53,94.63-94.37,0-185.78-48.43-206.28-91.76-1.76-3.71-2.44-7.8-1.89-11.87,1.47-10.88,8.27-31.71,38.88-28.42,7.24.78,16.65,6.25,20.34,12.53Z"/>
  <path class="cls-2" d="M180.6,495.14s-72.87-117.99,83.89-193.96c114.84-55.66,235.02-27.98,291.47,0,0,0,139.41,46.12,113.11,193.96,0,0,169.77,238.95-139.92,332.72-2.08.63-172.78,42.91-324.37-21.32-15.1-6.4-146.81-64.93-88.06-218.04,0,0,7.51-36.42,63.88-93.36Z"/>
</svg>